<?xml version="1.0" encoding="utf-8"?>
<!-- Generator: Adobe Illustrator 23.0.3, SVG Export Plug-In . SVG Version: 6.00 Build 0)  -->
<svg version="1.1" id="Layer_1" xmlns="http://www.w3.org/2000/svg" xmlns:xlink="http://www.w3.org/1999/xlink" x="0px" y="0px"
	 viewBox="0 0 1000 1000" enable-background="new 0 0 1000 1000" xml:space="preserve">
<g>
	<g>

			<linearGradient id="SVGID_1_" gradientUnits="userSpaceOnUse" x1="-6327.3423" y1="-5520.4067" x2="-6674.4966" y2="-5224.8315" gradientTransform="matrix(-0.652 -0.7583 0.7583 -0.652 366.0781 -7713.9448)">
			<stop  offset="0" style="stop-color:#4D73FF"/>
			<stop  offset="0.4728" style="stop-color:#4B72FE"/>
			<stop  offset="0.6431" style="stop-color:#4471FC"/>
			<stop  offset="0.7645" style="stop-color:#396DF8"/>
			<stop  offset="0.8627" style="stop-color:#2868F3"/>
			<stop  offset="0.9457" style="stop-color:#1262EC"/>
			<stop  offset="0.9975" style="stop-color:#005DE6"/>
		</linearGradient>
		<path fill="url(#SVGID_1_)" d="M340.4,458.9c3.8,0.4,7.7,0.7,11.5,1.1c83,8,166.2,15,248.8,26.2c15.6,62.6,25.7,116,39.7,145
			c38.2,78.8,110.7,50.9,131.6,18.4c-5.5,14.9-11,29.8-16.5,44.7c-18.9,51-37.9,101.8-56.5,152.9c-21.6,59.4-61.4,130.8-136.3,119
			c-64.5-10.1-89.9-81.3-106-135.9c-27.4-92.7-44.4-186.6-76.3-278C369.4,520.7,356,489.3,340.4,458.9z"/>
	</g>

		<linearGradient id="SVGID_2_" gradientUnits="userSpaceOnUse" x1="-6428.3247" y1="-5235.7256" x2="-6583.1782" y2="-5103.8799" gradientTransform="matrix(-0.652 -0.7583 0.7583 -0.652 366.0781 -7713.9448)">
		<stop  offset="0" style="stop-color:#6687FF"/>
		<stop  offset="7.395926e-02" style="stop-color:#6687FF"/>
		<stop  offset="0.5233" style="stop-color:#6687FF"/>
		<stop  offset="0.9305" style="stop-color:#6687FF"/>
		<stop  offset="0.9975" style="stop-color:#6687FF"/>
	</linearGradient>
	<path fill="url(#SVGID_2_)" d="M600.7,486.2c174.6,23.7,186.7,101.5,186.9,121.3c-5.2,14-10.4,28.1-15.6,42.1
		c-20.8,32.5-93.3,60.4-131.6-18.4C626.4,602.2,616.3,548.7,600.7,486.2z"/>
	<g>

			<linearGradient id="SVGID_3_" gradientUnits="userSpaceOnUse" x1="-6582.8682" y1="-4867.0957" x2="-5968.459" y2="-4871.5122" gradientTransform="matrix(-0.652 -0.7583 0.7583 -0.652 366.0781 -7713.9448)">
			<stop  offset="0" style="stop-color:#005EE6"/>
			<stop  offset="0.171" style="stop-color:#276EF0"/>
			<stop  offset="0.3509" style="stop-color:#497BF8"/>
			<stop  offset="0.4994" style="stop-color:#5E84FD"/>
			<stop  offset="0.597" style="stop-color:#6687FF"/>
			<stop  offset="0.6858" style="stop-color:#6386FE"/>
			<stop  offset="0.7631" style="stop-color:#5881FC"/>
			<stop  offset="0.8362" style="stop-color:#467AF7"/>
			<stop  offset="0.9066" style="stop-color:#2D6FF1"/>
			<stop  offset="0.9745" style="stop-color:#0D62E9"/>
			<stop  offset="0.9975" style="stop-color:#005DE6"/>
		</linearGradient>
		<path fill="url(#SVGID_3_)" d="M389.4,139.5L1000,32.6l-0.6,1.7c-0.4,1.1-0.8,2.2-1.2,3.3l-0.5,1.5l-1.3,3.5l-0.7,1.9L975,100.3
			c-20.7,56-41.4,111.9-62,167.9c-26.5,71.8-53.1,143.6-79.6,215.5c-15.2,41.2-30.5,82.5-45.7,123.7
			c-0.2-19.7-12.2-97.6-186.9-121.3C571.3,368.4,522.2,218.4,389.4,139.5z"/>
	</g>
	<g>

			<linearGradient id="SVGID_4_" gradientUnits="userSpaceOnUse" x1="-6274.6816" y1="-5055.271" x2="-5853.9619" y2="-5413.4814" gradientTransform="matrix(-0.652 -0.7583 0.7583 -0.652 366.0781 -7713.9448)">
			<stop  offset="0" style="stop-color:#094FED"/>
			<stop  offset="0.2426" style="stop-color:#0A4EEA"/>
			<stop  offset="0.4528" style="stop-color:#0D4CDF"/>
			<stop  offset="0.651" style="stop-color:#1147CD"/>
			<stop  offset="0.8406" style="stop-color:#1841B4"/>
			<stop  offset="1" style="stop-color:#1F3B99"/>
		</linearGradient>
		<path fill="url(#SVGID_4_)" d="M87.4,192.3l301.9-52.8c132.8,79,181.9,228.9,211.3,346.7C518.1,475,434.9,468,351.9,460
			c-3.8-0.4-7.7-0.7-11.5-1.1c-33.5-65.5-76.9-127.1-126.8-178.7c-8.9-9.2-18.1-18.1-27.8-26.5C185.8,253.7,130.1,205.2,87.4,192.3z
			"/>
	</g>
	<g>

			<linearGradient id="SVGID_5_" gradientUnits="userSpaceOnUse" x1="-5833.728" y1="-5500.606" x2="-6110.1206" y2="-5265.2788" gradientTransform="matrix(-0.652 -0.7583 0.7583 -0.652 366.0781 -7713.9448)">
			<stop  offset="0" style="stop-color:#365CE6"/>
			<stop  offset="5.569615e-02" style="stop-color:#325AE0"/>
			<stop  offset="0.466" style="stop-color:#1749BA"/>
			<stop  offset="0.7943" style="stop-color:#063FA2"/>
			<stop  offset="0.9975" style="stop-color:#003B99"/>
		</linearGradient>
		<path fill="url(#SVGID_5_)" d="M87.6,192.3c42.7,12.9,98.2,61.4,98.2,61.4c9.7,8.4,18.9,17.3,27.8,26.5
			c49.9,51.6,93.3,113.2,126.8,178.7c-71.9-6.7-146.2-11.7-216.4-28.7C67.5,416.6,18.8,381.1,3.7,322.8
			c-12.1-46.7,5.7-91.9,47.7-116.3c11.2-6.5,23.5-11.1,36.1-14.2"/>
	</g>
</g>
</svg>
